<svg width="494" height="283" viewBox="0 0 494 283" fill="none" xmlns="http://www.w3.org/2000/svg">
<path d="M493.5 1C493.5 0.723858 493.276 0.5 493 0.5C492.724 0.5 492.5 0.723858 492.5 1H493.5ZM2 282.5L5.74445 278.105L0.0664022 277.06L2 282.5ZM492.5 1C492.5 3.61797 491.085 7.78147 488.29 13.0822C485.508 18.3589 481.395 24.6925 476.087 31.6257C465.472 45.4914 450.095 61.7269 431.066 76.6693C393.001 106.56 340.39 131.225 282.082 121.507L281.918 122.493C340.61 132.275 393.499 107.44 431.684 77.4557C450.78 62.4606 466.216 46.1648 476.881 32.2336C482.214 25.2684 486.36 18.8872 489.175 13.5487C491.977 8.23416 493.5 3.88203 493.5 1H492.5ZM282.082 121.507C210.219 109.53 144.361 102.847 76.1784 160.117L76.8215 160.883C144.639 103.919 210.092 110.522 281.918 122.493L282.082 121.507ZM76.1784 160.117C14.576 211.86 5.37459 260.576 2.32276 277.986L3.30774 278.159C6.33494 260.889 15.4594 212.424 76.8215 160.883L76.1784 160.117Z" fill="white"/>
</svg>
