<svg width="67" height="22" viewBox="0 0 67 22" fill="none" xmlns="http://www.w3.org/2000/svg">
<path d="M4.35588 15.5882H5.06176H5.76765V14.8824V14.1765H5.06176H4.35588V14.8824V15.5882ZM2.94412 14.1765H3.65H4.35588V13.4706V12.7647H3.65H2.94412V13.4706V14.1765ZM1.53235 12.7647H2.23824H2.94412V12.0588V11.3529H2.23824H1.53235V12.0588V12.7647ZM0.120588 11.3529H0.826471H1.53235V10.6471V9.94118H0.826471H0.120588V10.6471V11.3529ZM1.53235 9.94118H2.23824H2.94412V9.23529V8.52941H2.23824H1.53235V9.23529V9.94118ZM2.94412 8.52941H3.65H4.35588V7.82353V7.11765H3.65H2.94412V7.82353V8.52941ZM4.35588 7.11765H5.06176H5.76765V6.41176V5.70588H5.06176H4.35588V6.41176V7.11765ZM11.6771 17H12.383H13.0889H13.7947H14.5006H15.2065H15.9124V16.2941V15.5882H15.2065H14.5006H13.7947H13.0889H12.383H11.6771V16.2941V17ZM10.2653 15.5882H10.9712H11.6771V14.8824V14.1765V13.4706V12.7647V12.0588V11.3529V10.6471V9.94118V9.23529V8.52941V7.82353V7.11765V6.41176V5.70588V5V4.29412V3.58823V2.88235H10.9712H10.2653V3.58823V4.29412V5V5.70588V6.41176V7.11765V7.82353V8.52941V9.23529V9.94118V10.6471V11.3529V12.0588V12.7647V13.4706V14.1765V14.8824V15.5882ZM15.9124 15.5882H16.6183H17.3242V14.8824V14.1765V13.4706V12.7647H16.6183H15.9124V13.4706V14.1765V14.8824V15.5882ZM15.9124 5.70588H16.6183H17.3242V5V4.29412V3.58823V2.88235H16.6183H15.9124V3.58823V4.29412V5V5.70588ZM11.6771 2.88235H12.383H13.0889H13.7947H14.5006H15.2065H15.9124V2.17647V1.47059H15.2065H14.5006H13.7947H13.0889H12.383H11.6771V2.17647V2.88235ZM18.9983 21.2353H19.7042H20.4101H21.116H21.8218H22.5277H23.2336V20.5294V19.8235H23.9395V19.1176V18.4118H24.6454V17.7059V17H25.3513V16.2941V15.5882H26.0571V14.8824V14.1765H26.763V13.4706V12.7647H27.4689V12.0588V11.3529V10.6471V9.94118V9.23529V8.52941V7.82353V7.11765V6.41176V5.70588H26.763H26.0571V6.41176V7.11765V7.82353V8.52941V9.23529V9.94118V10.6471V11.3529V12.0588V12.7647H25.3513V13.4706V14.1765H24.6454V14.8824V15.5882H23.9395H23.2336V14.8824V14.1765H22.5277V13.4706V12.7647H21.8218V12.0588V11.3529V10.6471V9.94118V9.23529V8.52941V7.82353V7.11765V6.41176V5.70588H21.116H20.4101V6.41176V7.11765V7.82353V8.52941V9.23529V9.94118V10.6471V11.3529V12.0588V12.7647H21.116V13.4706V14.1765H21.8218V14.8824V15.5882H22.5277V16.2941V17H23.2336V17.7059V18.4118H22.5277V19.1176V19.8235H21.8218H21.116H20.4101H19.7042H18.9983V20.5294V21.2353ZM31.9487 17H32.6545H33.3604H34.0663H34.7722H35.4781H36.184V16.2941V15.5882H35.4781H34.7722H34.0663H33.3604H32.6545H31.9487V16.2941V17ZM30.5369 15.5882H31.2428H31.9487V14.8824V14.1765V13.4706V12.7647V12.0588V11.3529H31.2428H30.5369V12.0588V12.7647V13.4706V14.1765V14.8824V15.5882ZM36.184 15.5882H36.8898H37.5957V14.8824V14.1765V13.4706V12.7647V12.0588V11.3529H36.8898H36.184V12.0588V12.7647V13.4706V14.1765V14.8824V15.5882ZM34.7722 11.3529H35.4781H36.184V10.6471V9.94118H35.4781H34.7722V10.6471V11.3529ZM33.3604 9.94118H34.0663H34.7722V9.23529V8.52941H34.0663H33.3604V9.23529V9.94118ZM31.9487 8.52941H32.6545H33.3604V7.82353V7.11765H32.6545H31.9487V7.82353V8.52941ZM30.5369 7.11765H31.2428H31.9487V6.41176V5.70588V5V4.29412V3.58823V2.88235H31.2428H30.5369V3.58823V4.29412V5V5.70588V6.41176V7.11765ZM36.184 5.70588H36.8898H37.5957V5V4.29412V3.58823V2.88235H36.8898H36.184V3.58823V4.29412V5V5.70588ZM31.9487 2.88235H32.6545H33.3604H34.0663H34.7722H35.4781H36.184V2.17647V1.47059H35.4781H34.7722H34.0663H33.3604H32.6545H31.9487V2.17647V2.88235ZM42.7993 17H43.5052H44.211H44.9169H45.6228H46.3287H47.0346V16.2941V15.5882H46.3287H45.6228H44.9169H44.211H43.5052H42.7993V16.2941V17ZM41.3875 15.5882H42.0934H42.7993V14.8824V14.1765V13.4706V12.7647V12.0588V11.3529V10.6471V9.94118V9.23529V8.52941V7.82353V7.11765H42.0934H41.3875V7.82353V8.52941V9.23529V9.94118V10.6471V11.3529V12.0588V12.7647V13.4706V14.1765V14.8824V15.5882ZM47.0346 15.5882H47.7405H48.4463V14.8824V14.1765H47.7405H47.0346V14.8824V15.5882ZM47.0346 8.52941H47.7405H48.4463V7.82353V7.11765H47.7405H47.0346V7.82353V8.52941ZM42.7993 7.11765H43.5052H44.211H44.9169H45.6228H46.3287H47.0346V6.41176V5.70588H46.3287H45.6228H44.9169H44.211H43.5052H42.7993V6.41176V7.11765ZM48.7115 21.2353H49.4174H50.1233V20.5294V19.8235H50.8291V19.1176V18.4118H51.535V17.7059V17H52.2409V16.2941V15.5882H52.9468V14.8824V14.1765H53.6527V13.4706V12.7647H54.3585V12.0588V11.3529H55.0644V10.6471V9.94118H55.7703V9.23529V8.52941H56.4762V7.82353V7.11765H57.1821V6.41176V5.70588H57.888V5V4.29412H58.5938V3.58823V2.88235H59.2997V2.17647V1.47059H60.0056V0.764705V0.0588231H59.2997H58.5938V0.764705V1.47059H57.888V2.17647V2.88235H57.1821V3.58823V4.29412H56.4762V5V5.70588H55.7703V6.41176V7.11765H55.0644V7.82353V8.52941H54.3585V9.23529V9.94118H53.6527V10.6471V11.3529H52.9468V12.0588V12.7647H52.2409V13.4706V14.1765H51.535V14.8824V15.5882H50.8291V16.2941V17H50.1233V17.7059V18.4118H49.4174V19.1176V19.8235H48.7115V20.5294V21.2353ZM60.9587 15.5882H61.6646H62.3705V14.8824V14.1765H61.6646H60.9587V14.8824V15.5882ZM62.3705 14.1765H63.0764H63.7822V13.4706V12.7647H63.0764H62.3705V13.4706V14.1765ZM63.7822 12.7647H64.4881H65.194V12.0588V11.3529H64.4881H63.7822V12.0588V12.7647ZM65.194 11.3529H65.8999H66.6058V10.6471V9.94118H65.8999H65.194V10.6471V11.3529ZM63.7822 9.94118H64.4881H65.194V9.23529V8.52941H64.4881H63.7822V9.23529V9.94118ZM62.3705 8.52941H63.0764H63.7822V7.82353V7.11765H63.0764H62.3705V7.82353V8.52941ZM60.9587 7.11765H61.6646H62.3705V6.41176V5.70588H61.6646H60.9587V6.41176V7.11765Z" fill="#1C1C1C"/>
</svg>
