<svg width="70" height="23" viewBox="0 0 70 23" fill="none" xmlns="http://www.w3.org/2000/svg">
<path d="M11.744 7.904L3.944 12.464L11.744 16.928L10.016 19.64L0.68 13.832V11.12L10.064 5.288L11.744 7.904ZM20.5906 2.936C22.5586 2.936 24.0466 3.696 25.0546 5.216C26.0786 6.736 26.5906 8.88 26.5906 11.648C26.5906 14.432 26.0786 16.592 25.0546 18.128C24.0466 19.648 22.5586 20.408 20.5906 20.408C18.6226 20.408 17.1266 19.648 16.1026 18.128C15.0946 16.592 14.5906 14.432 14.5906 11.648C14.5906 8.88 15.0946 6.736 16.1026 5.216C17.1266 3.696 18.6226 2.936 20.5906 2.936ZM20.5906 5.696C19.7906 5.696 19.1986 6.16 18.8146 7.088C18.4466 8 18.2626 9.52 18.2626 11.648C18.2626 13.84 18.4466 15.392 18.8146 16.304C19.1986 17.216 19.7906 17.672 20.5906 17.672C21.4066 17.672 21.9906 17.216 22.3426 16.304C22.7106 15.392 22.8946 13.84 22.8946 11.648C22.8946 9.488 22.7026 7.96 22.3186 7.064C21.9506 6.152 21.3746 5.696 20.5906 5.696ZM20.5666 10.16C21.0146 10.16 21.3906 10.312 21.6946 10.616C21.9986 10.92 22.1506 11.288 22.1506 11.72C22.1506 12.168 21.9986 12.544 21.6946 12.848C21.3906 13.152 21.0146 13.304 20.5666 13.304C20.1186 13.304 19.7426 13.152 19.4386 12.848C19.1506 12.544 19.0066 12.168 19.0066 11.72C19.0066 11.288 19.1506 10.92 19.4386 10.616C19.7426 10.312 20.1186 10.16 20.5666 10.16ZM41.0052 17.12V20H30.2053V17.12H34.2133V7.088L30.7812 9.248L29.1733 6.632L34.5493 3.368H37.9093V17.12H41.0052ZM42.8679 21.32L52.9479 0.391999L55.8759 1.76L45.8199 22.688L42.8679 21.32ZM69.3065 11.096V13.832L59.9465 19.64L58.2425 17.048L66.0185 12.464L58.2425 8.024L59.9225 5.288L69.3065 11.096Z" fill="#F1F0F0"/>
</svg>
