<svg width="82" height="66" viewBox="0 0 82 66" fill="none" xmlns="http://www.w3.org/2000/svg">
<path d="M0 48L82 48.0005" stroke="#F1F0F0" stroke-width="2"/>
<path d="M5.296 31.3397C5.808 31.3397 6.248 31.4077 6.616 31.5437C6.984 31.6717 7.344 31.8717 7.696 32.1437L7.108 32.8277C6.62 32.4197 6.04 32.2157 5.368 32.2157C4.624 32.2157 4.016 32.4877 3.544 33.0317C3.08 33.5677 2.848 34.4237 2.848 35.5997C2.848 36.7677 3.076 37.6237 3.532 38.1677C3.988 38.7117 4.596 38.9837 5.356 38.9837C5.772 38.9837 6.128 38.9237 6.424 38.8037C6.72 38.6837 7.004 38.5157 7.276 38.2997L7.816 38.9717C7.2 39.5717 6.376 39.8717 5.344 39.8717C4.664 39.8717 4.052 39.7077 3.508 39.3797C2.964 39.0437 2.536 38.5557 2.224 37.9157C1.912 37.2757 1.756 36.5037 1.756 35.5997C1.756 34.7037 1.912 33.9357 2.224 33.2957C2.544 32.6477 2.972 32.1597 3.508 31.8317C4.052 31.5037 4.648 31.3397 5.296 31.3397ZM12.4433 39.7757C12.1953 40.5037 11.8553 41.0837 11.4233 41.5157C10.9913 41.9477 10.3873 42.2037 9.61131 42.2837L9.46731 41.4797C9.89131 41.4077 10.2273 41.2957 10.4753 41.1437C10.7313 40.9997 10.9313 40.8157 11.0753 40.5917C11.2193 40.3757 11.3513 40.0917 11.4713 39.7397H11.1353L8.93931 33.4157H10.0073L11.8193 38.9717L13.6073 33.4157H14.6513L12.4433 39.7757ZM17.5986 34.2437C18.0866 33.6037 18.6906 33.2837 19.4106 33.2837C20.2186 33.2837 20.8146 33.5717 21.1986 34.1477C21.5826 34.7237 21.7746 35.5317 21.7746 36.5717C21.7746 37.5637 21.5546 38.3637 21.1146 38.9717C20.6746 39.5717 20.0586 39.8717 19.2666 39.8717C18.5386 39.8717 17.9666 39.6077 17.5506 39.0797L17.4786 39.7397H16.5906V30.8717L17.5986 30.7517V34.2437ZM19.0386 39.0557C19.5666 39.0557 19.9706 38.8477 20.2506 38.4317C20.5386 38.0157 20.6826 37.3957 20.6826 36.5717C20.6826 35.7557 20.5546 35.1397 20.2986 34.7237C20.0506 34.3077 19.6786 34.0997 19.1826 34.0997C18.8626 34.0997 18.5666 34.1957 18.2946 34.3877C18.0306 34.5797 17.7986 34.8197 17.5986 35.1077V38.2397C17.7666 38.4957 17.9746 38.6957 18.2226 38.8397C18.4706 38.9837 18.7426 39.0557 19.0386 39.0557ZM24.5899 36.9317C24.6139 37.6277 24.7939 38.1517 25.1299 38.5037C25.4739 38.8557 25.9059 39.0317 26.4259 39.0317C26.7379 39.0317 27.0219 38.9877 27.2779 38.8997C27.5419 38.8037 27.8219 38.6597 28.1179 38.4677L28.5859 39.1397C28.2899 39.3717 27.9499 39.5517 27.5659 39.6797C27.1899 39.8077 26.8099 39.8717 26.4259 39.8717C25.5139 39.8717 24.8019 39.5757 24.2899 38.9837C23.7859 38.3837 23.5339 37.5837 23.5339 36.5837C23.5339 35.9517 23.6459 35.3877 23.8699 34.8917C24.0939 34.3877 24.4139 33.9957 24.8299 33.7157C25.2459 33.4277 25.7299 33.2837 26.2819 33.2837C27.0819 33.2837 27.7099 33.5637 28.1659 34.1237C28.6299 34.6757 28.8619 35.4317 28.8619 36.3917C28.8619 36.5757 28.8539 36.7557 28.8379 36.9317H24.5899ZM26.2939 34.1117C25.8059 34.1117 25.4099 34.2877 25.1059 34.6397C24.8019 34.9837 24.6299 35.4917 24.5899 36.1637H27.8779C27.8699 35.4997 27.7259 34.9917 27.4459 34.6397C27.1659 34.2877 26.7819 34.1117 26.2939 34.1117ZM35.2533 33.2837C35.5093 33.2837 35.8053 33.3277 36.1413 33.4157L35.9973 35.5637H35.1813V34.2077H35.1213C34.1453 34.2077 33.4533 34.9037 33.0453 36.2957V38.9597H34.3293V39.7397H31.0413V38.9597H32.0373V34.1957H31.0413V33.4157H32.7933L32.9853 34.9157C33.2413 34.3717 33.5453 33.9637 33.8973 33.6917C34.2573 33.4197 34.7093 33.2837 35.2533 33.2837ZM43.4206 37.4477C43.4206 37.9277 43.3006 38.3517 43.0606 38.7197C42.8206 39.0797 42.4726 39.3637 42.0166 39.5717C41.5606 39.7717 41.0206 39.8717 40.3966 39.8717C39.7966 39.8717 39.2486 39.7837 38.7526 39.6077C38.2646 39.4237 37.8446 39.1637 37.4926 38.8277L38.1166 38.1197C38.4206 38.4077 38.7566 38.6277 39.1246 38.7797C39.5006 38.9317 39.9286 39.0077 40.4086 39.0077C40.9526 39.0077 41.4086 38.8757 41.7766 38.6117C42.1446 38.3477 42.3286 37.9677 42.3286 37.4717C42.3286 37.1917 42.2766 36.9597 42.1726 36.7757C42.0686 36.5917 41.8846 36.4277 41.6206 36.2837C41.3646 36.1397 41.0006 35.9997 40.5286 35.8637C39.6326 35.5997 38.9646 35.2917 38.5246 34.9397C38.0846 34.5797 37.8646 34.0917 37.8646 33.4757C37.8646 33.0677 37.9766 32.6997 38.2006 32.3717C38.4246 32.0437 38.7406 31.7917 39.1486 31.6157C39.5566 31.4317 40.0206 31.3397 40.5406 31.3397C41.0846 31.3397 41.5686 31.4197 41.9926 31.5797C42.4246 31.7397 42.8206 31.9757 43.1806 32.2877L42.5566 32.9597C41.9886 32.4637 41.3286 32.2157 40.5766 32.2157C40.0966 32.2157 39.7006 32.3197 39.3886 32.5277C39.0766 32.7357 38.9206 33.0397 38.9206 33.4397C38.9206 33.6797 38.9846 33.8837 39.1126 34.0517C39.2406 34.2197 39.4526 34.3757 39.7486 34.5197C40.0446 34.6637 40.4606 34.8117 40.9966 34.9637C41.7726 35.1877 42.3686 35.4797 42.7846 35.8397C43.2086 36.1997 43.4206 36.7357 43.4206 37.4477ZM48.2399 39.0077C48.7919 39.0077 49.3399 38.8237 49.8839 38.4557L50.3639 39.1157C50.0999 39.3477 49.7719 39.5317 49.3799 39.6677C48.9879 39.8037 48.6079 39.8717 48.2399 39.8717C47.3039 39.8717 46.5719 39.5797 46.0439 38.9957C45.5239 38.4037 45.2639 37.6077 45.2639 36.6077C45.2639 35.9757 45.3799 35.4077 45.6119 34.9037C45.8519 34.3997 46.1959 34.0037 46.6439 33.7157C47.0919 33.4277 47.6239 33.2837 48.2399 33.2837C49.0559 33.2837 49.7599 33.5317 50.3519 34.0277L49.8599 34.6877C49.3079 34.3197 48.7639 34.1357 48.2279 34.1357C47.6599 34.1357 47.2039 34.3477 46.8599 34.7717C46.5239 35.1877 46.3559 35.7997 46.3559 36.6077C46.3559 37.4157 46.5239 38.0197 46.8599 38.4197C47.2039 38.8117 47.6639 39.0077 48.2399 39.0077ZM56.8392 33.2837C57.0952 33.2837 57.3912 33.3277 57.7272 33.4157L57.5832 35.5637H56.7672V34.2077H56.7072C55.7312 34.2077 55.0392 34.9037 54.6312 36.2957V38.9597H55.9152V39.7397H52.6272V38.9597H53.6232V34.1957H52.6272V33.4157H54.3792L54.5712 34.9157C54.8272 34.3717 55.1312 33.9637 55.4832 33.6917C55.8432 33.4197 56.2952 33.2837 56.8392 33.2837ZM62.1625 30.4637C62.3865 30.4637 62.5665 30.5317 62.7025 30.6677C62.8385 30.7957 62.9065 30.9637 62.9065 31.1717C62.9065 31.3797 62.8385 31.5517 62.7025 31.6877C62.5665 31.8157 62.3865 31.8797 62.1625 31.8797C61.9465 31.8797 61.7705 31.8157 61.6345 31.6877C61.5065 31.5517 61.4425 31.3797 61.4425 31.1717C61.4425 30.9637 61.5065 30.7957 61.6345 30.6677C61.7705 30.5317 61.9465 30.4637 62.1625 30.4637ZM62.9665 38.9357H64.7425V39.7397H60.0145V38.9357H61.9585V34.2197H60.0745V33.4157H62.9665V38.9357ZM69.7898 33.2837C71.3178 33.2837 72.0818 34.3797 72.0818 36.5717C72.0818 37.5717 71.8738 38.3717 71.4578 38.9717C71.0418 39.5717 70.4378 39.8717 69.6458 39.8717C68.9578 39.8717 68.3978 39.6317 67.9658 39.1517V42.1637L66.9578 42.2837V33.4157H67.8218L67.9058 34.3037C68.1378 33.9757 68.4138 33.7237 68.7338 33.5477C69.0618 33.3717 69.4138 33.2837 69.7898 33.2837ZM69.5498 34.0997C69.2298 34.0997 68.9338 34.1957 68.6618 34.3877C68.3978 34.5797 68.1658 34.8197 67.9658 35.1077V38.2397C68.1338 38.4877 68.3418 38.6837 68.5898 38.8277C68.8458 38.9637 69.1218 39.0317 69.4178 39.0317C69.9458 39.0317 70.3378 38.8317 70.5938 38.4317C70.8578 38.0237 70.9898 37.4037 70.9898 36.5717C70.9898 35.7397 70.8738 35.1197 70.6418 34.7117C70.4098 34.3037 70.0458 34.0997 69.5498 34.0997ZM79.1811 39.4157C78.9651 39.5597 78.7011 39.6717 78.3891 39.7517C78.0851 39.8317 77.7811 39.8717 77.4771 39.8717C76.8131 39.8717 76.2931 39.6997 75.9171 39.3557C75.5411 39.0037 75.3531 38.5437 75.3531 37.9757V34.2077H73.9011V33.4157H75.3531V31.9877L76.3611 31.8677V33.4157H78.5571L78.4251 34.2077H76.3611V37.9637C76.3611 38.3237 76.4571 38.5917 76.6491 38.7677C76.8411 38.9437 77.1491 39.0317 77.5731 39.0317C78.0051 39.0317 78.4091 38.9317 78.7851 38.7317L79.1811 39.4157Z" fill="#F1F0F0"/>
<path d="M24.8594 58.9389L24.6321 58.9957C24.5587 58.759 24.4557 58.5625 24.3231 58.4062C24.1929 58.2476 24.0331 58.1292 23.8437 58.0511C23.6543 57.9706 23.4342 57.9304 23.1832 57.9304C22.7476 57.9304 22.3949 58.0416 22.125 58.2642C21.8551 58.4843 21.7202 58.7755 21.7202 59.1377C21.7202 59.4242 21.8113 59.6645 21.9936 59.8586C22.1783 60.0528 22.4564 60.196 22.8281 60.2883L23.6804 60.5014C24.0805 60.6008 24.3835 60.7689 24.5895 61.0056C24.7978 61.2424 24.902 61.5288 24.902 61.865C24.902 62.1609 24.8238 62.4214 24.6676 62.6463C24.5137 62.8712 24.3006 63.0464 24.0284 63.1718C23.7561 63.2949 23.4413 63.3565 23.0838 63.3565C22.5985 63.3565 22.2019 63.2381 21.8942 63.0014C21.5864 62.7646 21.3863 62.4285 21.294 61.9929L21.5213 61.936C21.6018 62.3219 21.7734 62.6179 22.0362 62.8238C22.3014 63.0274 22.6506 63.1292 23.0838 63.1292C23.5573 63.1292 23.9408 63.0132 24.2344 62.7812C24.5279 62.5492 24.6747 62.2438 24.6747 61.865C24.6747 61.5833 24.5871 61.3454 24.4119 61.1512C24.2367 60.9571 23.9739 60.8162 23.6236 60.7287L22.7713 60.5156C22.3523 60.4114 22.0338 60.241 21.816 60.0042C21.6006 59.7675 21.4929 59.4787 21.4929 59.1377C21.4929 58.8513 21.5639 58.6015 21.7059 58.3885C21.8504 58.173 22.0492 58.0049 22.3025 57.8842C22.5582 57.7635 22.8518 57.7031 23.1832 57.7031C23.6046 57.7031 23.9562 57.8073 24.2379 58.0156C24.5196 58.2216 24.7268 58.5293 24.8594 58.9389ZM28.4558 63.3565C28.0273 63.3565 27.6426 63.2334 27.3017 62.9872C26.9607 62.7386 26.6909 62.4012 26.492 61.9751C26.2955 61.5466 26.1972 61.0648 26.1972 60.5298C26.1972 59.9924 26.2955 59.5106 26.492 59.0845C26.6909 58.6583 26.9607 58.3222 27.3017 58.076C27.6426 57.8274 28.0273 57.7031 28.4558 57.7031C28.8843 57.7031 29.2678 57.8274 29.6063 58.076C29.9472 58.3245 30.2171 58.6619 30.416 59.088C30.6149 59.5142 30.7143 59.9948 30.7143 60.5298C30.7143 61.0648 30.6149 61.5466 30.416 61.9751C30.2195 62.4012 29.9508 62.7386 29.6099 62.9872C29.269 63.2334 28.8843 63.3565 28.4558 63.3565ZM28.4558 63.1292C28.8417 63.1292 29.1873 63.0156 29.4927 62.7883C29.8005 62.561 30.0431 62.2509 30.2207 61.8579C30.3982 61.4649 30.487 61.0222 30.487 60.5298C30.487 60.0374 30.3971 59.5958 30.2171 59.2052C30.0396 58.8122 29.7981 58.5021 29.4927 58.2748C29.1873 58.0452 28.8417 57.9304 28.4558 57.9304C28.0722 57.9304 27.7266 58.0452 27.4188 58.2748C27.1134 58.5021 26.8708 58.8122 26.6909 59.2052C26.5133 59.5958 26.4245 60.0374 26.4245 60.5298C26.4245 61.0222 26.5133 61.4649 26.6909 61.8579C26.8684 62.2509 27.1099 62.561 27.4153 62.7883C27.7231 63.0156 28.0699 63.1292 28.4558 63.1292ZM32.5422 55.9701V63.2429H32.315V55.9701H32.5422ZM37.9959 61.4531V57.7883H38.2232V63.2429H37.9959V62.3764H37.9675C37.8396 62.6605 37.6289 62.8877 37.3354 63.0582C37.0442 63.2287 36.7104 63.3139 36.334 63.3139C35.9694 63.3139 35.6474 63.2346 35.3681 63.076C35.0887 62.9173 34.8697 62.6984 34.7111 62.419C34.5525 62.1396 34.4732 61.8177 34.4732 61.4531V57.7883H34.7004V61.4531C34.7004 61.936 34.852 62.329 35.155 62.6321C35.458 62.9351 35.851 63.0866 36.334 63.0866C36.6559 63.0866 36.9412 63.0168 37.1898 62.8771C37.4407 62.7374 37.6372 62.5445 37.7793 62.2983C37.9237 62.052 37.9959 61.7703 37.9959 61.4531ZM41.8613 57.7883V58.0156H39.7022V57.7883H41.8613ZM40.4977 56.4815H40.7249V62.0923C40.7249 62.3054 40.7723 62.4888 40.867 62.6427C40.9617 62.7942 41.0872 62.9114 41.2434 62.9943C41.3997 63.0748 41.5678 63.115 41.7477 63.115C41.8163 63.115 41.8791 63.1091 41.9359 63.0973C41.9951 63.0854 42.0554 63.0677 42.117 63.044L42.188 63.2571C42.117 63.2831 42.0472 63.3032 41.9785 63.3174C41.9098 63.334 41.8329 63.3423 41.7477 63.3423C41.5251 63.3423 41.318 63.2914 41.1262 63.1896C40.9368 63.0878 40.7841 62.9434 40.6681 62.7564C40.5545 62.5693 40.4977 62.348 40.4977 62.0923V56.4815ZM43.6617 63.2429V57.7883H43.889V63.2429H43.6617ZM43.7754 56.794C43.7138 56.794 43.6606 56.7715 43.6156 56.7265C43.5706 56.6815 43.5481 56.6283 43.5481 56.5667C43.5481 56.5052 43.5706 56.4519 43.6156 56.4069C43.6606 56.3619 43.7138 56.3394 43.7754 56.3394C43.8369 56.3394 43.8902 56.3619 43.9352 56.4069C43.9802 56.4519 44.0026 56.5052 44.0026 56.5667C44.0026 56.6283 43.9802 56.6815 43.9352 56.7265C43.8902 56.7715 43.8369 56.794 43.7754 56.794ZM47.7819 63.3565C47.3534 63.3565 46.9687 63.2334 46.6278 62.9872C46.2869 62.7386 46.017 62.4012 45.8182 61.9751C45.6217 61.5466 45.5234 61.0648 45.5234 60.5298C45.5234 59.9924 45.6217 59.5106 45.8182 59.0845C46.017 58.6583 46.2869 58.3222 46.6278 58.076C46.9687 57.8274 47.3534 57.7031 47.7819 57.7031C48.2104 57.7031 48.594 57.8274 48.9325 58.076C49.2734 58.3245 49.5433 58.6619 49.7422 59.088C49.941 59.5142 50.0405 59.9948 50.0405 60.5298C50.0405 61.0648 49.941 61.5466 49.7422 61.9751C49.5457 62.4012 49.277 62.7386 48.9361 62.9872C48.5952 63.2334 48.2104 63.3565 47.7819 63.3565ZM47.7819 63.1292C48.1678 63.1292 48.5135 63.0156 48.8189 62.7883C49.1266 62.561 49.3693 62.2509 49.5469 61.8579C49.7244 61.4649 49.8132 61.0222 49.8132 60.5298C49.8132 60.0374 49.7232 59.5958 49.5433 59.2052C49.3658 58.8122 49.1243 58.5021 48.8189 58.2748C48.5135 58.0452 48.1678 57.9304 47.7819 57.9304C47.3984 57.9304 47.0528 58.0452 46.745 58.2748C46.4396 58.5021 46.197 58.8122 46.017 59.2052C45.8395 59.5958 45.7507 60.0374 45.7507 60.5298C45.7507 61.0222 45.8395 61.4649 46.017 61.8579C46.1946 62.2509 46.4361 62.561 46.7415 62.7883C47.0492 63.0156 47.3961 63.1292 47.7819 63.1292ZM51.8684 59.5781V63.2429H51.6411V57.7883H51.8684V58.6548H51.8968C52.0247 58.3707 52.2342 58.1434 52.5254 57.973C52.8189 57.8025 53.1539 57.7173 53.5303 57.7173C53.8949 57.7173 54.2169 57.7966 54.4963 57.9552C54.7756 58.1138 54.9946 58.3328 55.1532 58.6122C55.3118 58.8915 55.3911 59.2135 55.3911 59.5781V63.2429H55.1639V59.5781C55.1639 59.0951 55.0124 58.7021 54.7093 58.3991C54.4063 58.0961 54.0133 57.9446 53.5303 57.9446C53.2084 57.9446 52.9219 58.0144 52.671 58.1541C52.4224 58.2938 52.2259 58.4867 52.0815 58.7329C51.9394 58.9791 51.8684 59.2609 51.8684 59.5781ZM60.5918 58.9389L60.3645 58.9957C60.2911 58.759 60.1881 58.5625 60.0556 58.4062C59.9254 58.2476 59.7655 58.1292 59.5762 58.0511C59.3868 57.9706 59.1666 57.9304 58.9156 57.9304C58.48 57.9304 58.1273 58.0416 57.8574 58.2642C57.5875 58.4843 57.4526 58.7755 57.4526 59.1377C57.4526 59.4242 57.5437 59.6645 57.726 59.8586C57.9107 60.0528 58.1888 60.196 58.5605 60.2883L59.4128 60.5014C59.8129 60.6008 60.1159 60.7689 60.3219 61.0056C60.5302 61.2424 60.6344 61.5288 60.6344 61.865C60.6344 62.1609 60.5563 62.4214 60.4 62.6463C60.2461 62.8712 60.0331 63.0464 59.7608 63.1718C59.4886 63.2949 59.1737 63.3565 58.8162 63.3565C58.3309 63.3565 57.9343 63.2381 57.6266 63.0014C57.3188 62.7646 57.1188 62.4285 57.0264 61.9929L57.2537 61.936C57.3342 62.3219 57.5058 62.6179 57.7686 62.8238C58.0338 63.0274 58.383 63.1292 58.8162 63.1292C59.2897 63.1292 59.6732 63.0132 59.9668 62.7812C60.2603 62.5492 60.4071 62.2438 60.4071 61.865C60.4071 61.5833 60.3195 61.3454 60.1443 61.1512C59.9691 60.9571 59.7064 60.8162 59.356 60.7287L58.5037 60.5156C58.0847 60.4114 57.7663 60.241 57.5485 60.0042C57.333 59.7675 57.2253 59.4787 57.2253 59.1377C57.2253 58.8513 57.2963 58.6015 57.4384 58.3885C57.5828 58.173 57.7816 58.0049 58.035 57.8842C58.2906 57.7635 58.5842 57.7031 58.9156 57.7031C59.337 57.7031 59.6886 57.8073 59.9703 58.0156C60.2521 58.2216 60.4592 58.5293 60.5918 58.9389Z" fill="#F1F0F0"/>
<path d="M17.2872 7.904L9.48721 12.464L17.2872 16.928L15.5592 19.64L6.22321 13.832V11.12L15.6072 5.288L17.2872 7.904ZM26.1338 2.936C28.1018 2.936 29.5898 3.696 30.5978 5.216C31.6218 6.736 32.1338 8.88 32.1338 11.648C32.1338 14.432 31.6218 16.592 30.5978 18.128C29.5898 19.648 28.1018 20.408 26.1338 20.408C24.1658 20.408 22.6698 19.648 21.6458 18.128C20.6378 16.592 20.1338 14.432 20.1338 11.648C20.1338 8.88 20.6378 6.736 21.6458 5.216C22.6698 3.696 24.1658 2.936 26.1338 2.936ZM26.1338 5.696C25.3338 5.696 24.7418 6.16 24.3578 7.088C23.9898 8 23.8058 9.52 23.8058 11.648C23.8058 13.84 23.9898 15.392 24.3578 16.304C24.7418 17.216 25.3338 17.672 26.1338 17.672C26.9498 17.672 27.5338 17.216 27.8858 16.304C28.2538 15.392 28.4378 13.84 28.4378 11.648C28.4378 9.488 28.2458 7.96 27.8618 7.064C27.4938 6.152 26.9178 5.696 26.1338 5.696ZM26.1098 10.16C26.5578 10.16 26.9338 10.312 27.2378 10.616C27.5418 10.92 27.6938 11.288 27.6938 11.72C27.6938 12.168 27.5418 12.544 27.2378 12.848C26.9338 13.152 26.5578 13.304 26.1098 13.304C25.6618 13.304 25.2858 13.152 24.9818 12.848C24.6938 12.544 24.5498 12.168 24.5498 11.72C24.5498 11.288 24.6938 10.92 24.9818 10.616C25.2858 10.312 25.6618 10.16 26.1098 10.16ZM46.5485 17.12V20H35.7485V17.12H39.7565V7.088L36.3245 9.248L34.7165 6.632L40.0925 3.368H43.4525V17.12H46.5485ZM48.4111 21.32L58.4911 0.391999L61.4191 1.76L51.3631 22.688L48.4111 21.32ZM74.8497 11.096V13.832L65.4897 19.64L63.7857 17.048L71.5617 12.464L63.7857 8.024L65.4657 5.288L74.8497 11.096Z" fill="#F1F0F0"/>
</svg>
